<?xml version="1.0" standalone="no"?><!DOCTYPE svg PUBLIC "-//W3C//DTD SVG 1.1//EN" "http://www.w3.org/Graphics/SVG/1.1/DTD/svg11.dtd"><svg t="1683731338943" class="icon" viewBox="0 0 1024 1024" version="1.1" xmlns="http://www.w3.org/2000/svg" p-id="10720" width="200" height="200" xmlns:xlink="http://www.w3.org/1999/xlink"><path d="M512 377.0112" fill="#0de3e3" p-id="10721"></path><path d="M678.980267 752.622933c-23.0912 0-44.7488-8.9472-60.983467-25.186133l-2.2528-2.257067-2.8032 1.527467c-31.586133 17.194667-65.544533 25.915733-100.9408 25.915733-35.409067 0-69.358933-8.721067-100.898133-25.915733l-2.798933-1.5232-2.2528 2.248533c-16.512 16.477867-37.614933 25.1904-61.026133 25.1904-45.943467 0-84.753067-38.830933-84.753067-84.7872 0-32.081067 17.348267-60.309333 46.4128-75.515733l2.833067-1.4848-0.6272-3.136c-2.7904-13.905067-4.091733-27.357867-4.091733-42.333867 0-84.206933 52.5824-161.442133 130.8416-192.183467l2.453333-0.964267 0.238933-2.619733c4.049067-44.5952 39.914667-78.225067 83.4304-78.225067 45.960533 0 84.791467 38.839467 84.791467 84.804267l0 5.2992 2.231467 1.207467c67.268267 36.4544 109.051733 106.449067 109.051733 182.677333 0 14.971733-1.301333 28.420267-4.087467 42.338133l-0.6272 3.131733 2.833067 1.4848c29.474133 15.428267 47.786667 44.360533 47.786667 75.515733C763.733333 713.796267 724.919467 752.622933 678.980267 752.622933zM678.980267 619.037867c-27.362133 0-48.802133 21.435733-48.802133 48.802133 0 27.3536 21.435733 48.789333 48.802133 48.789333 27.357867 0 48.7936-21.431467 48.7936-48.789333C727.773867 641.8432 704.9728 619.037867 678.980267 619.037867zM440.657067 389.8752c-60.693333 28.091733-99.904 89.1264-99.904 155.490133 0 11.140267 1.3824 22.314667 2.722133 33.1264l0.554667 4.445867 3.652267 0.110933c45.277867 1.352533 80.746667 38.596267 80.746667 84.7872 0 7.082667-1.058133 13.230933-2.282667 20.343467l-0.942933 5.504 2.538667 1.493333c23.850667 14.0288 52.509867 21.448533 82.88 21.448533 27.707733 0 56.2944-7.3856 82.670933-21.358933l2.798933-1.4848-0.610133-3.1104c-1.339733-6.826667-2.7136-14.869333-2.7136-22.839467 0-44.881067 35.524267-82.1248 80.874667-84.795733l3.127467-0.183467 0.759467-3.037867c2.922667-11.652267 2.922667-23.2448 2.922667-34.453333 2.7392-58.4704-27.912533-114.3168-79.995733-145.544533l-3.630933-2.176-2.210133 3.6096c-15.197867 24.853333-41.92 39.697067-71.492267 39.697067-33.659733 0-63.082667-18.760533-76.795733-48.968533l-1.774933-3.9168L440.657067 389.8752zM345.019733 619.037867c-26.888533 0-48.763733 21.892267-48.763733 48.802133 0 27.3536 21.422933 48.789333 48.763733 48.789333 27.362133 0 48.797867-21.431467 48.797867-48.789333C393.813333 640.4736 372.381867 619.037867 345.019733 619.037867zM523.127467 308.744533c-27.362133 0-48.797867 21.435733-48.797867 48.8064 0 27.349333 21.431467 48.776533 48.797867 48.776533s48.802133-21.422933 48.802133-48.776533C571.925333 330.184533 550.4896 308.744533 523.127467 308.744533z" fill="#0de3e3" p-id="10722"></path><path d="M583.611733 533.179733l-25.898667-0.533333-7.607467-0.157867-7.611733-0.162133-6.506667-0.093867-3.016533-0.0896-1.646933-4.586667-15.0016-42.756267c-0.648533-1.8048-2.368-3.0336-4.322133-3.0336-1.911467 0-3.669333 1.2288-4.322133 3.0336l-15.0016 42.756267-1.604267 4.586667-3.0592 0.0896-6.506667 0.093867-7.611733 0.162133-7.607467 0.157867-25.898667 0.533333c-1.949867 0.0256-3.639467 1.301333-4.245333 3.1488-0.6144 1.856 0.0384 3.8912 1.604267 5.056l40.3584 30.289067-14.685867 47.918933c-0.5376 1.877333 0.1152 3.874133 1.685333 5.009067 0.4224 0.298667 0.8448 0.533333 1.301333 0.669867 0.1152 0.068267 0.2688 0.042667 0.426667 0.068267 0.341333 0.072533 0.610133 0.136533 0.955733 0.136533l0.0384 0c0.2688 0 0.571733-0.042667 0.8448-0.110933 0.149333-0.0256 0.298667-0.0256 0.452267-0.068267 0.456533-0.119467 0.8832-0.324267 1.2672-0.605867l41.617067-28.667733 41.617067 28.667733c0.8064 0.533333 1.6896 0.785067 2.602667 0.785067 0.9216 0 1.873067-0.251733 2.6752-0.874667 1.570133-1.134933 2.257067-3.153067 1.6896-5.009067l-14.651733-47.918933 40.32-30.289067c1.5616-1.160533 2.218667-3.2 1.604267-5.056C587.281067 534.481067 585.5616 533.205333 583.611733 533.179733L583.611733 533.179733 583.611733 533.179733z" fill="#0de3e3" p-id="10723"></path></svg>